<svg width="149" height="52" viewBox="0 0 149 52" fill="none" xmlns="http://www.w3.org/2000/svg">
<rect width="149" height="52" rx="20" fill="black"/>
<path d="M10 16.5L16.5 12.5L20 14.5L23 12.5L30 16.5V24.5L27 26L30 27.5V35.5L23 39.5L10 32V24.5V16.5Z" fill="white"/>
<path d="M11 17.5L16 20V27.5L23 31.5V38.5L11 31.5V21.5V17.5Z" fill="black"/>
<path d="M17.5 17.5L22.5 20.5V26.5L17.5 23.5V17.5Z" fill="black"/>
<path d="M40.25 37V21.4375H42.6562V37H40.25ZM39.9062 16.2656C39.9062 15.8385 40.0365 15.4844 40.2969 15.2031C40.5677 14.9115 40.9531 14.7656 41.4531 14.7656C41.9531 14.7656 42.3333 14.9115 42.5938 15.2031C42.8646 15.4844 43 15.8385 43 16.2656C43 16.7031 42.8646 17.0677 42.5938 17.3594C42.3333 17.651 41.9531 17.7969 41.4531 17.7969C40.9531 17.7969 40.5677 17.651 40.2969 17.3594C40.0365 17.0573 39.9062 16.6927 39.9062 16.2656ZM46.0469 29.4531V28.9531C46.0469 26.5677 46.6719 24.651 47.9219 23.2031C49.1719 21.7552 50.8802 21.0312 53.0469 21.0312C55.0885 21.0312 56.6354 21.5729 57.6875 22.6562C58.7396 23.7292 59.2656 25.0052 59.2656 26.4844V26.625H56.8906V26.4844C56.8906 25.5052 56.5729 24.6927 55.9375 24.0469C55.3125 23.3906 54.3542 23.0625 53.0625 23.0625C51.5521 23.0625 50.4167 23.6042 49.6562 24.6875C48.8958 25.7708 48.5156 27.1927 48.5156 28.9531V29.4531C48.5156 31.1615 48.8906 32.5781 49.6406 33.7031C50.401 34.8177 51.5365 35.375 53.0469 35.375C54.3594 35.375 55.3333 35.0469 55.9688 34.3906C56.6042 33.724 56.9219 32.8854 56.9219 31.875V31.7344H59.2656V31.875C59.2656 33.3646 58.7344 34.6615 57.6719 35.7656C56.6094 36.8594 55.0677 37.4062 53.0469 37.4062C50.8802 37.4062 49.1719 36.6771 47.9219 35.2188C46.6719 33.7604 46.0469 31.8385 46.0469 29.4531ZM61.3594 29.4531V28.9531C61.3594 26.6094 62.0104 24.7031 63.3125 23.2344C64.625 21.7656 66.375 21.0312 68.5625 21.0312C70.75 21.0312 72.4948 21.7656 73.7969 23.2344C75.099 24.7031 75.75 26.6094 75.75 28.9531V29.4531C75.75 31.8177 75.099 33.7344 73.7969 35.2031C72.4948 36.6719 70.75 37.4062 68.5625 37.4062C66.375 37.4062 64.625 36.6719 63.3125 35.2031C62.0104 33.7344 61.3594 31.8177 61.3594 29.4531ZM63.8281 28.9688V29.4531C63.8281 31.1406 64.224 32.5521 65.0156 33.6875C65.8177 34.8125 67 35.375 68.5625 35.375C70.1146 35.375 71.2917 34.8125 72.0938 33.6875C72.8958 32.5521 73.2969 31.1406 73.2969 29.4531V28.9688C73.2969 27.2812 72.8958 25.875 72.0938 24.75C71.2917 23.625 70.1146 23.0625 68.5625 23.0625C67 23.0625 65.8177 23.625 65.0156 24.75C64.224 25.875 63.8281 27.2812 63.8281 28.9688ZM78.625 37V21.4062H83.4062L83.4688 23.3125H83.5312C83.9271 22.6354 84.5365 22.0885 85.3594 21.6719C86.1927 21.2552 87.151 21.0469 88.2344 21.0469C89.8385 21.0469 91.1406 21.5 92.1406 22.4062C93.151 23.3021 93.6562 24.8438 93.6562 27.0312V37H88.7188V27.3438C88.7188 26.4062 88.5156 25.7448 88.1094 25.3594C87.7135 24.974 87.151 24.7812 86.4219 24.7812C85.8073 24.7812 85.2448 24.9583 84.7344 25.3125C84.224 25.6667 83.8333 26.1562 83.5625 26.7812V37H78.625ZM97.0312 37V21.4062H102.016V37H97.0312ZM96.6875 16.625C96.6875 15.8958 96.9323 15.2865 97.4219 14.7969C97.9115 14.2969 98.6146 14.0469 99.5312 14.0469C100.438 14.0469 101.135 14.2969 101.625 14.7969C102.115 15.2865 102.359 15.8958 102.359 16.625C102.359 17.3542 102.109 17.974 101.609 18.4844C101.12 18.9844 100.417 19.2344 99.5 19.2344C98.5938 19.2344 97.8958 18.9844 97.4062 18.4844C96.9271 17.974 96.6875 17.3542 96.6875 16.625ZM104.703 29.4375V28.9219C104.703 26.4531 105.443 24.5052 106.922 23.0781C108.411 21.651 110.391 20.9375 112.859 20.9375C115.266 20.9375 117.104 21.4948 118.375 22.6094C119.646 23.724 120.323 25.1615 120.406 26.9219L120.438 27.2344H115.641V27.0312C115.641 26.2812 115.411 25.6771 114.953 25.2188C114.505 24.75 113.828 24.5156 112.922 24.5156C111.87 24.5156 111.073 24.8854 110.531 25.625C109.99 26.3646 109.719 27.3906 109.719 28.7031V29.6406C109.719 30.9427 109.984 31.974 110.516 32.7344C111.047 33.4948 111.844 33.875 112.906 33.875C113.875 33.875 114.573 33.6354 115 33.1562C115.427 32.6667 115.646 32.0677 115.656 31.3594V31.1719H120.438L120.422 31.4219C120.411 33.1615 119.75 34.599 118.438 35.7344C117.135 36.8594 115.281 37.4219 112.875 37.4219C110.406 37.4219 108.427 36.7083 106.938 35.2812C105.448 33.8438 104.703 31.8958 104.703 29.4375ZM122.812 37V13.5469H127.75V26.8594L132.734 21.3906H138.25L127.75 32.4531V37H122.812ZM133.188 37L127.953 29.6719L131.047 26.25L138.984 37H133.188Z" fill="white"/>
</svg>
