<svg width="150" height="150" viewBox="0 0 150 150" fill="none" xmlns="http://www.w3.org/2000/svg">
<circle cx="75" cy="75" r="75" fill="#062B4C"/>
<path fill-rule="evenodd" clip-rule="evenodd" d="M50.223 37.499C44.7895 37.499 40.3848 41.9037 40.3848 47.3372V101.617C40.3848 107.05 44.7895 111.455 50.223 111.455C55.6564 111.455 60.0612 107.05 60.0612 101.617V84.6545C60.0611 84.6545 60.061 84.6545 60.0609 84.6545C54.6274 84.6545 50.2227 80.2498 50.2227 74.8163C50.2227 69.3828 54.6274 64.9781 60.0609 64.9781C60.061 64.9781 60.0611 64.9781 60.0612 64.9781V47.3372C60.0612 41.9037 55.6564 37.499 50.223 37.499Z" fill="white"/>
<mask id="mask0_906_426" style="mask-type:alpha" maskUnits="userSpaceOnUse" x="60" y="59" width="11" height="27">
<rect x="60.0996" y="59.3262" width="9.99252" height="25.9265" fill="white"/>
</mask>
<g mask="url(#mask0_906_426)">
<rect x="50.1069" y="64.7256" width="19.715" height="19.715" rx="9.85749" fill="#B767F7"/>
</g>
<rect x="69.8994" y="51.0698" width="19.6764" height="20.0156" rx="9.8382" fill="#6AD2BD"/>
<rect x="69.8994" y="77.1924" width="19.6764" height="20.0156" rx="9.8382" fill="#DF7288"/>
<rect x="89.5757" y="64.6387" width="19.6764" height="19.6764" rx="9.8382" fill="#F6C553"/>
<rect x="89.5757" y="37.4995" width="19.6764" height="20.0156" rx="9.8382" fill="#EF893C"/>
<rect x="89.5757" y="91.4404" width="19.6764" height="20.0156" rx="9.8382" fill="#A9B6F0"/>
</svg>
